<?xml version="1.0" encoding="UTF-8" standalone="no"?><!-- Generator: Gravit.io --><svg xmlns="http://www.w3.org/2000/svg" xmlns:xlink="http://www.w3.org/1999/xlink" style="isolation:isolate" viewBox="0 0 1024 1024" width="1024pt" height="1024pt"><defs><clipPath id="_clipPath_ZwhmqcMdESwN5XbReObbJTujy5BOlKyV"><rect width="1024" height="1024"/></clipPath></defs><g clip-path="url(#_clipPath_ZwhmqcMdESwN5XbReObbJTujy5BOlKyV)"><rect width="1024" height="1024" style="fill:rgb(56,64,72)" fill-opacity="0"/><g><g><path d=" M 138.67 185.712 L 885.33 185.712 L 885.33 761.712 L 138.67 761.712 L 138.67 185.712 Z  M 202.67 249.712 L 821.33 249.712 L 821.33 697.712 L 202.67 697.712 L 202.67 249.712 Z " fill-rule="evenodd" fill="rgb(110,146,164)"/><circle vector-effect="non-scaling-stroke" cx="170.66666666666652" cy="729.7116666666667" r="85.33333333333337" fill="rgb(110,146,164)"/><circle vector-effect="non-scaling-stroke" cx="170.66666666666652" cy="217.71166666666673" r="85.33333333333337" fill="rgb(110,146,164)"/><circle vector-effect="non-scaling-stroke" cx="512.0000000000002" cy="217.71166666666673" r="85.33333333333337" fill="rgb(110,146,164)"/><circle vector-effect="non-scaling-stroke" cx="853.3333333333336" cy="217.71166666666673" r="85.33333333333337" fill="rgb(110,146,164)"/><circle vector-effect="non-scaling-stroke" cx="853.3333333333336" cy="473.7116666666666" r="85.33333333333337" fill="rgb(110,146,164)"/><circle vector-effect="non-scaling-stroke" cx="853.3333333333336" cy="729.7116666666667" r="85.33333333333337" fill="rgb(110,146,164)"/><circle vector-effect="non-scaling-stroke" cx="512.0000000000002" cy="729.7116666666667" r="85.33333333333337" fill="rgb(110,146,164)"/><circle vector-effect="non-scaling-stroke" cx="170.66666666666652" cy="473.7116666666666" r="85.33333333333337" fill="rgb(110,146,164)"/></g></g><path d=" M 930.12 761.592 L 712.19 804.552 L 566.66 965.622 L 512 473.712 L 930.12 761.592 Z  M 768.73 728.182 L 678.95 745.872 L 614.56 817.152 L 591.08 605.852 L 768.73 728.182 Z " fill-rule="evenodd" fill="rgb(210,139,106)"/></g></svg>