<?xml version="1.0" encoding="UTF-8" standalone="no"?><!-- Generator: Gravit.io --><svg xmlns="http://www.w3.org/2000/svg" xmlns:xlink="http://www.w3.org/1999/xlink" style="isolation:isolate" viewBox="0 0 1024 1024" width="1024pt" height="1024pt"><defs><clipPath id="_clipPath_GS4nNYiO2b9gj8bJuWvPS3MOBi8uuvoD"><rect width="1024" height="1024"/></clipPath></defs><g clip-path="url(#_clipPath_GS4nNYiO2b9gj8bJuWvPS3MOBi8uuvoD)"><rect width="1024" height="1024" style="fill:rgb(56,64,72)" fill-opacity="0"/><path d=" M 181.867 247.05 L 186.367 739.8 L 674.617 737.55 L 681.367 870.3 L 766.867 764.55 L 910.867 739.8 L 913.117 244.8 L 181.867 247.05 Z " fill="var(--ternaryIconColor)"/><g><path d=" M 849.158 763.4 L 836.433 763.4 L 836.433 763.4 L 821.363 715.4 L 840.158 715.4 L 849.158 763.4 L 849.158 763.4 Z " fill="var(--primaryIconColor)"/><path d=" M 849.158 763.4 L 932.665 763.4 L 932.665 225.35 L 149.985 225.35 L 149.985 763.4 L 650.819 763.4 L 650.819 763.4 L 643.891 715.4 L 197.985 715.4 L 197.985 273.35 L 884.665 273.35 L 884.665 715.4 L 840.158 715.4 L 849.158 763.4 L 849.158 763.4 Z " fill="var(--primaryIconColor)"/><path d=" M 650.819 763.4 L 671.053 763.4 L 650.91 715.4 L 643.891 715.4 L 650.819 763.4 L 650.819 763.4 Z " fill="var(--primaryIconColor)"/><circle vector-effect="non-scaling-stroke" cx="541.3249423094088" cy="249.3533672105913" r="56.0049446355946" fill="var(--primaryIconColor)"/><circle vector-effect="non-scaling-stroke" cx="908.661722031072" cy="249.3533672105913" r="56.0049446355946" fill="var(--primaryIconColor)"/><circle vector-effect="non-scaling-stroke" cx="908.661722031072" cy="739.4015774250025" r="56.0049446355946" fill="var(--primaryIconColor)"/><circle vector-effect="non-scaling-stroke" cx="908.661722031072" cy="494.3774723177967" r="56.0049446355946" fill="var(--primaryIconColor)"/><circle vector-effect="non-scaling-stroke" cx="173.98816258774525" cy="494.3774723177967" r="56.0049446355946" fill="var(--primaryIconColor)"/><circle vector-effect="non-scaling-stroke" cx="173.98816258774525" cy="249.3533672105915" r="56.0049446355946" fill="var(--primaryIconColor)"/><circle vector-effect="non-scaling-stroke" cx="173.98816258774525" cy="739.4015774250024" r="56.0049446355946" fill="var(--primaryIconColor)"/><circle vector-effect="non-scaling-stroke" cx="541.3249423094088" cy="739.4015774250025" r="56.0049446355946" fill="var(--primaryIconColor)"/><path d=" M 939.381 756.33 L 772.061 789.31 L 660.281 913.03 L 618.301 535.25 L 939.381 756.33 Z  M 818.341 731.26 L 747.141 745.3 L 696.201 801.68 L 677.611 634.37 L 818.341 731.26 Z " fill-rule="evenodd" fill="var(--secondaryIconColor)"/></g></g></svg>