<?xml version="1.0" encoding="UTF-8" standalone="no"?><!-- Generator: Gravit.io --><svg xmlns="http://www.w3.org/2000/svg" xmlns:xlink="http://www.w3.org/1999/xlink" style="isolation:isolate" viewBox="0 0 768 768" width="768pt" height="768pt"><defs><clipPath id="_clipPath_VXLqO9syJmGvK6gXEMVgWG4QmPDpdsNF"><rect width="768" height="768"/></clipPath></defs><g clip-path="url(#_clipPath_VXLqO9syJmGvK6gXEMVgWG4QmPDpdsNF)"><rect width="768" height="768" style="fill:rgb(56,64,72)" fill-opacity="0"/><g><path d=" M 112 240 L 656 240 L 656 528 L 112 528 L 112 240 Z  M 144 272 L 624 272 L 624 496 L 144 496 L 144 272 Z " fill-rule="evenodd" fill="var(--primaryIconColor)"/><circle vector-effect="non-scaling-stroke" cx="383.99999999999994" cy="256.00000000000006" r="39.03030303030306" fill="var(--primaryIconColor)"/><circle vector-effect="non-scaling-stroke" cx="639.9999999999998" cy="256.00000000000006" r="39.030303030303" fill="var(--primaryIconColor)"/><circle vector-effect="non-scaling-stroke" cx="639.9999999999998" cy="512" r="39.030303030303" fill="var(--primaryIconColor)"/><circle vector-effect="non-scaling-stroke" cx="639.9999999999998" cy="384" r="39.030303030303" fill="var(--primaryIconColor)"/><circle vector-effect="non-scaling-stroke" cx="127.99999999999986" cy="384" r="39.03030303030306" fill="var(--primaryIconColor)"/><circle vector-effect="non-scaling-stroke" cx="127.99999999999986" cy="256.0000000000002" r="39.03030303030306" fill="var(--primaryIconColor)"/><circle vector-effect="non-scaling-stroke" cx="127.99999999999997" cy="512.0000000000002" r="39.03030303030306" fill="var(--primaryIconColor)"/><circle vector-effect="non-scaling-stroke" cx="384" cy="512" r="39.03030303030306" fill="var(--primaryIconColor)"/><path d=" M 742.84 571.96 L 556.94 608.6 L 431.69 747.23 L 384.83 325.46 L 742.84 571.96 Z  M 662.14 555.25 L 540.32 579.26 L 455.64 672.99 L 424.37 391.54 L 662.14 555.25 Z " fill-rule="evenodd" fill="var(--secondaryIconColor)"/></g></g></svg>