<?xml version="1.0" encoding="UTF-8" standalone="no"?><!-- Generator: Gravit.io --><svg xmlns="http://www.w3.org/2000/svg" xmlns:xlink="http://www.w3.org/1999/xlink" style="isolation:isolate" viewBox="0 0 1024 1024" width="1024pt" height="1024pt"><defs><clipPath id="_clipPath_PzI03v6A8yEczY9wKliwEQBN9DVFySRg"><rect width="1024" height="1024"/></clipPath></defs><g clip-path="url(#_clipPath_PzI03v6A8yEczY9wKliwEQBN9DVFySRg)"><rect width="1024" height="1024" style="fill:rgb(56,64,72)" fill-opacity="0"/><g><path d=" M 908.492 763.4 L 895.766 763.4 L 895.766 763.4 L 880.696 715.4 L 899.492 715.4 L 908.492 763.4 L 908.492 763.4 Z " fill="var(--primaryIconColor)"/><path d=" M 908.492 763.4 L 991.998 763.4 L 991.998 225.35 L 209.318 225.35 L 209.318 763.4 L 710.152 763.4 L 710.152 763.4 L 703.224 715.4 L 257.318 715.4 L 257.318 273.35 L 943.998 273.35 L 943.998 715.4 L 899.492 715.4 L 908.492 763.4 L 908.492 763.4 Z " fill="var(--primaryIconColor)"/><path d=" M 710.152 763.4 L 730.387 763.4 L 710.244 715.4 L 703.224 715.4 L 710.152 763.4 L 710.152 763.4 Z " fill="var(--primaryIconColor)"/><circle vector-effect="non-scaling-stroke" cx="600.6582756427423" cy="249.3533672105913" r="56.0049446355946" fill="var(--primaryIconColor)"/><circle vector-effect="non-scaling-stroke" cx="967.9950553644054" cy="249.3533672105913" r="56.0049446355946" fill="var(--primaryIconColor)"/><circle vector-effect="non-scaling-stroke" cx="967.9950553644054" cy="739.4015774250026" r="56.0049446355946" fill="var(--primaryIconColor)"/><circle vector-effect="non-scaling-stroke" cx="967.9950553644054" cy="494.37747231779673" r="56.0049446355946" fill="var(--primaryIconColor)"/><circle vector-effect="non-scaling-stroke" cx="233.32149592107862" cy="494.37747231779673" r="56.0049446355946" fill="var(--primaryIconColor)"/><circle vector-effect="non-scaling-stroke" cx="233.32149592107862" cy="249.3533672105915" r="56.0049446355946" fill="var(--primaryIconColor)"/><circle vector-effect="non-scaling-stroke" cx="233.32149592107862" cy="739.4015774250025" r="56.0049446355946" fill="var(--primaryIconColor)"/><circle vector-effect="non-scaling-stroke" cx="600.6582756427423" cy="739.4015774250026" r="56.0049446355946" fill="var(--primaryIconColor)"/><path d=" M 998.714 756.33 L 831.394 789.31 L 719.614 913.03 L 677.634 535.25 L 998.714 756.33 Z  M 877.674 731.26 L 806.474 745.3 L 755.534 801.68 L 736.944 634.37 L 877.674 731.26 Z " fill-rule="evenodd" fill="var(--secondaryIconColor)"/></g></g></svg>