<svg width="38.365mm" height="38.365mm" version="1.1" viewBox="0 0 38.365 38.365" xmlns="http://www.w3.org/2000/svg"><g transform="translate(-95.779 -152.8)"><rect x="95.779" y="152.8" width="38.365" height="38.365" opacity="0" stroke-width="1.0177"/></g><g transform="translate(-95.779 -152.8)"><path transform="matrix(.26458 0 0 .26458 95.779 152.8)" d="m32.992 10.016-10 10v40.004h-0.009766v25h0.009766v39.996l10 9.998h44.99v0.00586h15.002v-0.00586h30.006v-15h-30.006v-39.994h25v-15h-25v-40.006h30.006v-14.998h-89.998zm9.9961 14.998h34.994v40.006h-34.998l-4.9961-4.9961v-30.01l5-5zm-0.003906 55.006h34.998v39.994h-34.994l-5-5v-29.998l4.9961-4.9961z" stroke-width="3.7795"/></g></svg>
